<svg width="34" height="34" viewBox="0 0 34 34" fill="none" xmlns="http://www.w3.org/2000/svg">
<path fill-rule="evenodd" clip-rule="evenodd" d="M30.5504 6.73421C27.9768 3.44138 24.1989 1.35745 20.0212 1.35745C11.9413 1.35745 6.03 8.86583 6.03 16.9999C6.03 22.6704 9.79318 26.9139 13.9795 26.9139C14.3705 26.9139 14.7587 26.8784 15.1412 26.808C12.3375 24.7632 10.5435 21.0388 10.5435 16.9999C10.5435 10.5687 14.8941 5.55695 20.0212 5.55695C25.6128 5.55695 29.5011 11.1098 29.5011 16.9999C29.4865 21.3501 27.9357 25.6751 25.2066 28.8664C22.8248 31.6522 19.7397 33.4187 16.3476 33.9792C16.3476 33.9792 16.6305 34 17.0003 34C26.3891 34 34 26.3887 34 16.9999C34 13.1428 32.7147 9.58645 30.5504 6.73421ZM27.97 17.0001C27.97 11.3292 24.2069 7.08574 20.021 7.08574C19.6295 7.08574 19.2419 7.12116 18.8588 7.19199C21.663 9.23671 23.4565 12.9612 23.4565 17.0001C23.4565 23.4313 19.1063 28.443 13.9793 28.443C8.38722 28.443 4.49938 22.8901 4.49938 17.0001C4.51354 12.65 6.06481 8.32485 8.79333 5.13355C11.1757 2.3479 14.2607 0.581308 17.6524 0.0207779C17.6524 0.0207779 17.3699 0 17.0001 0C7.61135 0 0 7.61132 0 17.0001C0 20.8568 1.2854 24.413 3.45009 27.2663C6.02326 30.5581 9.80153 32.6426 13.9793 32.6426C22.0592 32.6426 27.97 25.1341 27.97 17.0001Z" fill="white"/>
</svg>
