<svg width="34" height="34" viewBox="0 0 34 34" fill="none" xmlns="http://www.w3.org/2000/svg">
<path fill-rule="evenodd" clip-rule="evenodd" d="M2.04154 0.00485229H31.9585C33.07 0.00485229 33.9711 0.907245 33.9711 2.0204V31.9796C33.9711 33.0928 33.07 33.9952 31.9585 33.9952H13.7633V25.5574H17.3114C19.2306 25.5574 20.8372 25.211 22.1316 24.5182C23.4258 23.8254 24.3854 22.9204 25.0102 21.8029C25.635 20.6633 25.9474 19.4116 25.9474 18.0485C25.9474 16.5735 25.6239 15.2661 24.9767 14.1264C24.3297 12.9867 23.359 12.0927 22.0646 11.4446C20.7704 10.7965 19.186 10.4725 17.3114 10.4725H8.03943V33.9952H2.04154C0.930006 33.9952 0.0289307 33.0928 0.0289307 31.9796V2.0204C0.0289307 0.907245 0.930006 0.00485229 2.04154 0.00485229ZM26.0653 4.5136H8.03943V8.30078H26.0653V4.5136Z" fill="white"/>
<path d="M16.8763 20.9984C17.9698 20.9984 18.7843 20.7415 19.3198 20.2273C19.8554 19.7134 20.1232 18.987 20.1232 18.0485C20.1232 17.1099 19.8554 16.3835 19.3198 15.8695C18.7843 15.3555 17.9698 15.0985 16.8763 15.0985H13.7633V20.9984H16.8763Z" fill="white"/>
</svg>
