<svg xmlns="http://www.w3.org/2000/svg" viewBox="0 0 394.68 464.9"><defs><style>.cls-1{fill:#fff;}</style></defs><g id="Layer_2" data-name="Layer 2"><g id="Layer_1-2" data-name="Layer 1"><path class="cls-1" d="M373.2,299.15,206.54,464.9l-66-60.73,95-94.47h0l81.88-81.12-19.79-18.21q-18.72,6.83-37-8.22L247.37,215.3l16.47,14.9-55.17,54.56h0L187.73,305.6c-38.37,35-96.44,39.27-139,11.88a110.35,110.35,0,0,1-14.93-11.54A106.78,106.78,0,0,1,21.08,292c-31.14-40.83-27.86-98.67,10.38-136.7L187.65,0l66,60.73L91.93,221.57a17.93,17.93,0,0,0,.4,26.14,20,20,0,0,0,25.81.72,20.07,20.07,0,0,0,2.87-2.86l80.52-80.08s0,0,0,0c.64-.66,1.28-1.32,1.93-2,38.25-38,98.53-43.42,142.4-15.25a109.57,109.57,0,0,1,15,11.59A107.35,107.35,0,0,1,373,173C401.77,210,402,261.34,373.2,299.15Z"/></g></g></svg>